<svg viewBox="0 0 200 200" xmlns="http://www.w3.org/2000/svg">
  <defs>
    <linearGradient id="primaryGradient" x1="0%" y1="0%" x2="100%" y2="100%">
      <stop offset="0%" style="stop-color:#4F46E5;stop-opacity:1" />
      <stop offset="100%" style="stop-color:#7C3AED;stop-opacity:1" />
    </linearGradient>
    <linearGradient id="accentGradient" x1="0%" y1="0%" x2="100%" y2="100%">
      <stop offset="0%" style="stop-color:#06B6D4;stop-opacity:1" />
      <stop offset="100%" style="stop-color:#3B82F6;stop-opacity:1" />
    </linearGradient>
    <filter id="shadow" x="-50%" y="-50%" width="200%" height="200%">
      <feDropShadow dx="2" dy="4" stdDeviation="3" flood-color="#000000" flood-opacity="0.1"/>
    </filter>
  </defs>
  
  <!-- Fondo circular principal -->
  <circle cx="100" cy="100" r="90" fill="url(#primaryGradient)" filter="url(#shadow)"/>
  
  <!-- Círculo interno decorativo -->
  <circle cx="100" cy="100" r="75" fill="none" stroke="rgba(255,255,255,0.2)" stroke-width="1"/>
  
  <!-- Libro/Panel principal -->
  <rect x="60" y="70" width="80" height="60" rx="8" fill="rgba(255,255,255,0.95)" filter="url(#shadow)"/>
  
  <!-- Líneas del contenido del libro -->
  <line x1="70" y1="85" x2="120" y2="85" stroke="#4F46E5" stroke-width="2" stroke-linecap="round"/>
  <line x1="70" y1="95" x2="110" y2="95" stroke="#6B7280" stroke-width="1.5" stroke-linecap="round"/>
  <line x1="70" y1="105" x2="125" y2="105" stroke="#6B7280" stroke-width="1.5" stroke-linecap="round"/>
  <line x1="70" y1="115" x2="100" y2="115" stroke="#6B7280" stroke-width="1.5" stroke-linecap="round"/>
  
  <!-- Ícono de graduación (gorro) -->
  <path d="M125 75 L145 80 L145 90 L135 93 L125 90 Z" fill="url(#accentGradient)" filter="url(#shadow)"/>
  <path d="M125 90 L125 100 L130 102 L135 100 L135 90" fill="url(#accentGradient)"/>
  <circle cx="147" cy="85" r="2" fill="#F59E0B"/>
  
  <!-- Elementos tecnológicos (puntos conectados) -->
  <circle cx="45" cy="55" r="3" fill="rgba(255,255,255,0.8)"/>
  <circle cx="35" cy="75" r="2" fill="rgba(255,255,255,0.6)"/>
  <circle cx="50" cy="85" r="2.5" fill="rgba(255,255,255,0.7)"/>
  <line x1="45" y1="55" x2="35" y2="75" stroke="rgba(255,255,255,0.4)" stroke-width="1"/>
  <line x1="35" y1="75" x2="50" y2="85" stroke="rgba(255,255,255,0.4)" stroke-width="1"/>
  
  <circle cx="155" cy="145" r="3" fill="rgba(255,255,255,0.8)"/>
  <circle cx="165" cy="125" r="2" fill="rgba(255,255,255,0.6)"/>
  <circle cx="150" cy="135" r="2.5" fill="rgba(255,255,255,0.7)"/>
  <line x1="155" y1="145" x2="165" y2="125" stroke="rgba(255,255,255,0.4)" stroke-width="1"/>
  <line x1="165" y1="125" x2="150" y2="135" stroke="rgba(255,255,255,0.4)" stroke-width="1"/>
  
  <!-- Usuario/Estudiante (ícono simplificado) -->
  <circle cx="75" cy="145" r="8" fill="rgba(255,255,255,0.9)" filter="url(#shadow)"/>
  <circle cx="75" cy="142" r="3" fill="#4F46E5"/>
  <path d="M70 148 Q75 146 80 148 L80 152 L70 152 Z" fill="#4F46E5"/>
  
  <!-- Dashboard/Gráfico (líneas de estadísticas) -->
  <rect x="115" y="145" width="20" height="15" rx="2" fill="rgba(255,255,255,0.9)" filter="url(#shadow)"/>
  <rect x="118" y="155" width="2" height="3" fill="url(#accentGradient)"/>
  <rect x="122" y="152" width="2" height="6" fill="url(#accentGradient)"/>
  <rect x="126" y="150" width="2" height="8" fill="url(#accentGradient)"/>
  <rect x="130" y="148" width="2" height="10" fill="url(#accentGradient)"/>
</svg>